<?xml version="1.0" encoding="UTF-8"?>
<svg version="1.1" xmlns="http://www.w3.org/2000/svg" width="1024" height="1024">
<path d="M0 0 C0.33 0.66 0.66 1.32 1 2 C22.12 2 43.24 2 65 2 C65 1.34 65 0.68 65 0 C66.65 0.66 68.3 1.32 70 2 C70.02339525 17.1167355 70.04101168 32.23347017 70.05181217 47.35021973 C70.05696107 54.36971646 70.0639769 61.38920191 70.07543945 68.40869141 C70.08649855 75.18435777 70.09228656 81.96001243 70.09487724 88.73568726 C70.09672323 91.31920557 70.10032796 93.90272325 70.10573006 96.48623657 C70.11300119 100.1080259 70.11398837 103.72976703 70.11352539 107.3515625 C70.11712067 108.4168367 70.12071594 109.4821109 70.12442017 110.57966614 C70.1230455 111.57511948 70.12167084 112.57057281 70.12025452 113.59619141 C70.12117631 114.4516153 70.1220981 115.30703918 70.12304783 116.18838501 C69.96463062 119.80818229 69.44941035 123.40471716 69 127 C118.17 127 167.34 127 218 127 C218 85.75 218 44.5 218 2 C221.31522042 0.34238979 225.02072435 0.85279973 228.66552734 0.85473633 C229.56337952 0.85137772 230.46123169 0.8480191 231.3862915 0.84455872 C234.36952076 0.83502327 237.35269393 0.83310362 240.3359375 0.83203125 C242.41183495 0.828818 244.48773218 0.82545388 246.56362915 0.82194519 C250.92670211 0.81594572 255.28975524 0.81410588 259.65283203 0.81469727 C265.21854568 0.81479837 270.78413027 0.80120341 276.34981346 0.78392506 C280.64462861 0.77274702 284.93941328 0.77077991 289.23424149 0.77130699 C291.28414984 0.77013341 293.33405914 0.76574685 295.38395309 0.75797462 C315.49474306 0.68892717 332.51041508 1.78221706 347.70703125 16.5078125 C355.11179457 24.55591982 360.78017132 33.67365802 366.48046875 42.94921875 C368.81656703 46.73561853 371.26057782 50.43816625 373.75 54.125 C377.90213596 60.28564572 381.90230603 66.53484293 385.875 72.8125 C390.44287614 80.0172751 395.04454793 87.19663937 399.75 94.3125 C400.25128418 95.07731689 400.75256836 95.84213379 401.26904297 96.63012695 C401.73197754 97.32581787 402.19491211 98.02150879 402.671875 98.73828125 C403.0750293 99.34712158 403.47818359 99.95596191 403.89355469 100.58325195 C404.96141524 102.15973265 404.96141524 102.15973265 407 103 C407.24234375 102.46503906 407.4846875 101.93007813 407.734375 101.37890625 C409.32907159 98.38146729 411.26294173 95.68128873 413.25 92.9375 C413.68111084 92.33824707 414.11222168 91.73899414 414.55639648 91.12158203 C422.88323038 79.58223957 431.33672373 68.12878661 439.91796875 56.77734375 C441.39727896 54.80400499 442.85618419 52.81529692 444.30078125 50.81640625 C449.94491602 43.06639262 455.01177249 36.76738452 464 33 C467.15144938 32.54579795 470.27642392 32.51192743 473.45703125 32.48828125 C474.81062996 32.46135445 474.81062996 32.46135445 476.1915741 32.43388367 C479.06516839 32.37996644 481.93860284 32.34601554 484.8125 32.3125 C486.73244479 32.27929417 488.65236778 32.24480153 490.57226562 32.20898438 C498.71553439 32.06505201 506.85542511 31.98515352 515 32 C515.16242188 30.9171875 515.16242188 30.9171875 515.328125 29.8125 C516.96774169 22.94898826 521.6138705 16.48844125 527 12 C527.66 12 528.32 12 529 12 C529 11.34 529 10.68 529 10 C540.44908573 1.25484728 553.02135209 -0.39260966 567 1 C577.84950399 3.21203479 588.1078065 9.57898209 594.50390625 18.61328125 C601.42822686 29.65965173 604.91023593 40.77954062 602.46484375 53.86328125 C599.33484553 66.2293398 593.49498818 75.52473839 582.8125 82.8125 C571.31520508 89.64100389 559.27602312 91.99753469 546.25 88.75 C539.2291988 86.59830122 532.87496447 83.40622335 527 79 C527 78.34 527 77.68 527 77 C526.01 76.67 525.02 76.34 524 76 C522.2109375 73.890625 522.2109375 73.890625 520.375 71.25 C519.76398437 70.38890625 519.15296875 69.5278125 518.5234375 68.640625 C517.00193849 66.00336006 516.54776825 63.95588151 516 61 C510.76393889 58.38196945 502.48803578 59.60125542 496.66162109 59.54003906 C494.7274498 59.51344137 492.79342011 59.472526 490.85986328 59.41699219 C488.06745248 59.337741 485.27774645 59.30471369 482.484375 59.28125 C481.19500031 59.23176208 481.19500031 59.23176208 479.87957764 59.18127441 C476.33104616 59.19304109 473.96120275 59.21287209 471.15075684 61.51434326 C469.62435669 63.27794878 468.29627799 65.06312302 467 67 C466.319375 67.87140625 465.63875 68.7428125 464.9375 69.640625 C464.298125 70.50171875 463.65875 71.3628125 463 72.25 C462.23042969 73.28511719 461.46085937 74.32023437 460.66796875 75.38671875 C459.77821268 76.59082588 458.88892386 77.79527836 458 79 C457.48904785 79.69174316 456.9780957 80.38348633 456.45166016 81.09619141 C451.03487463 88.432323 445.63098171 95.77792094 440.234375 103.12890625 C439.61908936 103.96607178 439.00380371 104.8032373 438.36987305 105.66577148 C437.20620542 107.24913282 436.04352854 108.83322301 434.88208008 110.41821289 C434.07613403 111.5144397 434.07613403 111.5144397 433.25390625 112.6328125 C432.73070801 113.34856445 432.20750977 114.06431641 431.66845703 114.80175781 C430.48643694 116.35910474 429.25814692 117.88182194 427.99951172 119.37792969 C427.34869629 120.15813477 426.69788086 120.93833984 426.02734375 121.7421875 C425.425271 122.43940918 424.82319824 123.13663086 424.20288086 123.85498047 C422.76161666 125.96455533 422.76161666 125.96455533 423.18164062 128.56225586 C424.34739591 132.0348294 426.40689745 134.77265 428.5625 137.6875 C433 143.75455235 433 143.75455235 433 146 C436.31000965 142.79286085 439.3471865 139.47401477 442.30004883 135.93676758 C457.52400863 117.69996278 457.52400863 117.69996278 468.00390625 116.71875 C471.10096676 116.27913571 471.10096676 116.27913571 472.80078125 113.9609375 C473.29964844 113.10757813 473.79851562 112.25421875 474.3125 111.375 C480.33531035 102.12237487 487.72626217 97.77393374 498.33203125 95.5 C508.47234389 93.92735054 518.35851272 96.74988843 526.84765625 102.3359375 C534.41761554 108.1885739 538.96410387 116.2928834 540.74609375 125.65234375 C541.82396712 135.61852679 538.60643538 144.68003085 532.875 152.75 C527.70454207 159.03238436 520.80031969 162.87700659 513 165 C502.2090265 165.97996169 492.20224457 165.63628779 483.24609375 158.94140625 C478.77549478 155.08250495 474.80396035 151.22556248 472 146 C472 145.34 472 144.68 472 144 C468.38825082 146.72144038 465.56199605 149.52667533 462.75 153.0625 C458.8088647 157.98891913 454.79990257 162.85011637 450.75 167.6875 C448.83480263 169.96173555 448.83480263 169.96173555 448 173 C449.06135022 175.36004881 450.36059192 177.51893932 451.67578125 179.74609375 C455.46789586 189.06418068 455.28331656 199.30777981 455.22705078 209.21386719 C455.22648511 210.59492993 455.22680627 211.97599327 455.22793579 213.35705566 C455.22850421 217.0670247 455.21683368 220.77686158 455.20278788 224.48680019 C455.19019437 228.37850188 455.18910328 232.27020735 455.18673706 236.16192627 C455.18054742 243.51391032 455.16417104 250.86583414 455.14403808 258.2177918 C455.117396 268.16488041 455.10668608 278.11198576 455.09503365 288.0591011 C455.07628833 303.70611243 455.03642603 319.3529967 455 335 C432.56 335 410.12 335 387 335 C386.95101563 325.68523437 386.90203125 316.37046875 386.8515625 306.7734375 C386.81618177 300.87629274 386.78030568 294.9791579 386.7421875 289.08203125 C386.68176235 279.71958667 386.62337363 270.35716078 386.578125 260.99462891 C386.54516145 254.17596758 386.50530617 247.35738714 386.45720994 240.53881514 C386.43198827 236.92916385 386.41019427 233.3195659 386.39665604 229.70985031 C386.38140547 225.67803088 386.35076748 221.64646802 386.31884766 217.61474609 C386.31668747 216.42072174 386.31452728 215.22669739 386.31230164 213.99649048 C386.33336814 206.27268536 386.33336814 206.27268536 384 199 C383.01 198.34 382.02 197.68 381 197 C381 196.01 381 195.02 381 194 C379.82346519 191.95591932 378.55611935 189.96381065 377.25 188 C376.42987126 186.75594485 375.61092819 185.51110752 374.79296875 184.265625 C374.34743652 183.58951172 373.9019043 182.91339844 373.44287109 182.21679688 C370.21962303 177.26466618 367.11255924 172.23701383 363.98730469 167.22265625 C363.4977832 166.44277344 363.00826172 165.66289062 362.50390625 164.859375 C362.06892822 164.16295898 361.6339502 163.46654297 361.18579102 162.74902344 C359.98449653 160.85884675 359.98449653 160.85884675 358 159 C357.34 158.34 356.68 157.68 356 157 C356 156.34 356 155.68 356 155 C354.58551016 152.46206762 353.13579759 149.97937642 351.625 147.5 C351.2125 146.81035156 350.8 146.12070312 350.375 145.41015625 C347.99760088 141.47154849 347.99760088 141.47154849 345 138 C344.08352881 136.41173612 343.17086668 134.82117133 342.27587891 133.22070312 C339.55245933 128.48051475 336.59278624 123.88003 333.6875 119.25 C332.7294043 117.71859375 332.7294043 117.71859375 331.75195312 116.15625 C329.83885438 113.10149455 327.92000002 110.05042149 326 107 C325.3498291 105.96166016 324.6996582 104.92332031 324.02978516 103.85351562 C323.40765137 102.86544922 322.78551758 101.87738281 322.14453125 100.859375 C321.58741455 99.97217773 321.03029785 99.08498047 320.45629883 98.17089844 C319.04546177 95.91659779 319.04546177 95.91659779 317 94 C316.24390066 92.71293903 315.52322885 91.40487534 314.82421875 90.0859375 C311.74027198 84.43410992 308.29064838 79.04029893 304.8125 73.625 C303.86987305 72.14966797 303.86987305 72.14966797 302.90820312 70.64453125 C300.62857219 67.08001742 298.34705048 63.52057573 296 60 C294.02 59.67 292.04 59.34 290 59 C290 150.08 290 241.16 290 335 C266.24 335 242.48 335 218 335 C218 288.8 218 242.6 218 195 C209.42 195.33 200.84 195.66 192 196 C179 196 179 196 177 195 C176.67 195.66 176.34 196.32 176 197 C176 196.34 176 195.68 176 195 C174.35 195.33 172.7 195.66 171 196 C171.99 196.66 172.98 197.32 174 198 C172.02 197.67 170.04 197.34 168 197 C168 196.34 168 195.68 168 195 C166.79472656 195.0721875 165.58945312 195.144375 164.34765625 195.21875 C139.24783222 196.60088807 114.09494069 196.37166706 89 195 C88.67 195.66 88.34 196.32 88 197 C87.67 196.67 87.34 196.34 87 196 C84.13732433 195.92674832 81.299281 195.90761795 78.4375 195.9375 C77.63119141 195.94201172 76.82488281 195.94652344 75.99414062 195.95117188 C73.99606244 195.96299482 71.99802217 195.98093086 70 196 C70.00092179 196.71029326 70.00184359 197.42058653 70.00279331 198.15240383 C70.02484779 215.4106284 70.04141118 232.66884939 70.05181217 249.92708492 C70.0569753 258.27292829 70.06401831 266.61876227 70.07543945 274.96459961 C70.08538579 282.2361877 70.09185331 289.50776899 70.09408849 296.77936369 C70.09539569 300.63199521 70.09848208 304.48460728 70.10573006 308.33723259 C70.11248948 311.95932672 70.11461712 315.58139328 70.11310768 319.20349312 C70.11351637 321.17497228 70.11891197 323.14644841 70.12442017 325.11791992 C70.1230455 326.28044785 70.12167084 327.44297577 70.12025452 328.64073181 C70.12117631 329.65746947 70.1220981 330.67420713 70.12304783 331.72175503 C70 334 70 334 69 335 C66.82194281 335.09429342 64.6407872 335.11742538 62.46069336 335.11352539 C61.77779739 335.11367142 61.09490143 335.11381744 60.39131165 335.1139679 C58.12412386 335.11326876 55.85701726 335.1054764 53.58984375 335.09765625 C52.02185613 335.09579207 50.45386793 335.09436817 48.88587952 335.09336853 C44.75123497 335.08954334 40.61662534 335.07971306 36.48199463 335.06866455 C31.52524283 335.05665582 26.56847939 335.05204819 21.61171722 335.04621124 C14.07446593 335.03650131 6.53723487 335.01807812 -1 335 C-1.84672294 296.89089138 -2.13205282 258.80289208 -2.07177609 220.68514173 C-2.0603781 213.26863648 -2.05608975 205.85213095 -2.05223143 198.43561855 C-2.04526996 185.21846821 -2.03454498 172.00132434 -2.02050781 158.78417969 C-2.01926609 157.61308485 -2.01926609 157.61308485 -2.01799929 156.41833153 C-2.01293494 151.66082655 -2.00778052 146.90332167 -2.00260353 142.1458168 C-1.99473971 134.90938585 -1.98701314 127.67295476 -1.97949219 120.43652344 C-1.97866406 119.64103477 -1.97783593 118.8455461 -1.97698271 118.02595171 C-1.96331299 104.77589592 -1.95355346 91.52583998 -1.94658184 78.27577901 C-1.94211564 70.15248051 -1.93410746 62.02920033 -1.92143703 53.9059104 C-1.91204237 47.72700504 -1.90767251 41.54810583 -1.9051857 35.36919403 C-1.90330838 32.83588471 -1.89969697 30.30257602 -1.89425278 27.76927185 C-1.88707533 24.32295259 -1.88599722 20.87668431 -1.88647461 17.43035889 C-1.88287965 16.42187102 -1.87928469 15.41338315 -1.87558079 14.37433505 C-1.87695514 13.4534224 -1.87832949 12.53250974 -1.87974548 11.58369064 C-1.87882369 10.78929415 -1.8779019 9.99489767 -1.87695217 9.17642856 C-1.92838484 6.97933764 -1.92838484 6.97933764 -2.57001591 4.83851933 C-3 3 -3 3 -2 1 C-1.34 1.33 -0.68 1.66 0 2 C0 1.34 0 0.68 0 0 Z M547.30078125 31.37890625 C543.23655055 35.62027049 541.14240771 40.09007991 541 46 C541.98264238 51.58501845 544.53793294 55.47185395 549 59 C554.16420187 61.64214979 559.48766754 61.50653004 565 60 C569.17062963 57.51292728 572.191858 54.54570279 574 50 C574.69598255 45.16858627 574.65219791 40.51809429 572.375 36.125 C568.95348778 31.62301024 565.66340618 29.07834573 560.0625 28.125 C555.27161678 27.77823131 551.15637026 28.25011793 547.30078125 31.37890625 Z M496 124 C494.26608586 127.46782828 494.54122181 131.20833321 495 135 C496.26938424 137.68620182 496.26938424 137.68620182 499 139 C502.85325767 139.94740647 506.37278815 140.59331551 510.1640625 139.2109375 C513.30105045 137.14186034 513.950041 134.49986333 515 131 C514.39048697 127.54609285 513.34310474 125.50146077 511.375 122.625 C506.2424003 119.11322126 500.64481235 120.34045087 496 124 Z " fill="#00437C" transform="translate(223,329)"/>
<path d="M0 0 C0.33 0.66 0.66 1.32 1 2 C22.12 2 43.24 2 65 2 C65 1.34 65 0.68 65 0 C66.65 0.66 68.3 1.32 70 2 C70.02339525 17.1167355 70.04101168 32.23347017 70.05181217 47.35021973 C70.05696107 54.36971646 70.0639769 61.38920191 70.07543945 68.40869141 C70.08649855 75.18435777 70.09228656 81.96001243 70.09487724 88.73568726 C70.09672323 91.31920557 70.10032796 93.90272325 70.10573006 96.48623657 C70.11300119 100.1080259 70.11398837 103.72976703 70.11352539 107.3515625 C70.11712067 108.4168367 70.12071594 109.4821109 70.12442017 110.57966614 C70.1230455 111.57511948 70.12167084 112.57057281 70.12025452 113.59619141 C70.12117631 114.4516153 70.1220981 115.30703918 70.12304783 116.18838501 C69.96463062 119.80818229 69.44941035 123.40471716 69 127 C118.17 127 167.34 127 218 127 C218 85.75 218 44.5 218 2 C221.31522042 0.34238979 225.02072435 0.85279973 228.66552734 0.85473633 C229.56337952 0.85137772 230.46123169 0.8480191 231.3862915 0.84455872 C234.36952076 0.83502327 237.35269393 0.83310362 240.3359375 0.83203125 C242.41183495 0.828818 244.48773218 0.82545388 246.56362915 0.82194519 C250.92670211 0.81594572 255.28975524 0.81410588 259.65283203 0.81469727 C265.21854568 0.81479837 270.78413027 0.80120341 276.34981346 0.78392506 C280.64462861 0.77274702 284.93941328 0.77077991 289.23424149 0.77130699 C291.28414984 0.77013341 293.33405914 0.76574685 295.38395309 0.75797462 C315.49474306 0.68892717 332.51041508 1.78221706 347.70703125 16.5078125 C355.11179457 24.55591982 360.78017132 33.67365802 366.48046875 42.94921875 C368.81657077 46.73562459 371.26069749 50.438081 373.75 54.125 C378.49155085 61.16456833 383.04946483 68.31494827 387.58325195 75.48974609 C390.61817366 80.28531282 393.6833163 85.05559292 396.8203125 89.78515625 C397.42770264 90.70401611 398.03509277 91.62287598 398.66088867 92.56958008 C399.82623894 94.32777446 400.9980723 96.0816926 402.17700195 97.83081055 C402.69480225 98.61367432 403.21260254 99.39653809 403.74609375 100.203125 C404.20685303 100.89051758 404.6676123 101.57791016 405.14233398 102.28613281 C405.42536377 102.85170898 405.70839355 103.41728516 406 104 C405.67 104.66 405.34 105.32 405 106 C401.69156112 102.14684415 398.77970867 98.30448898 396.0625 94 C395.68609375 93.40735352 395.3096875 92.81470703 394.921875 92.20410156 C393.61071005 90.13849647 392.30541813 88.06924123 391 86 C388.83634835 82.58141634 386.66907751 79.16514331 384.5 75.75 C383.91597412 74.83041504 383.33194824 73.91083008 382.73022461 72.96337891 C377.91480925 65.39913988 373.03381768 57.87878978 368.125 50.375 C367.43599609 49.32151367 366.74699219 48.26802734 366.03710938 47.18261719 C364.02929595 44.11872096 362.01561272 41.05876998 360 38 C358.94341187 36.38943726 358.94341187 36.38943726 357.86547852 34.74633789 C357.17123779 33.69438232 356.47699707 32.64242676 355.76171875 31.55859375 C355.14256592 30.61814209 354.52341309 29.67769043 353.88549805 28.70874023 C348.00375408 20.25892161 341.27825375 13.60476297 332 9 C331.05913292 8.50157089 331.05913292 8.50157089 330.09925842 7.99307251 C319.92537617 3.43182658 308.7442657 4.39374238 297.83203125 4.390625 C295.83767393 4.3766092 293.84332823 4.36082707 291.84899902 4.34326172 C284.50362071 4.29082795 277.15803123 4.27242386 269.8125 4.25 C253.374375 4.1675 236.93625 4.085 220 4 C220 45.25 220 86.5 220 129 C169.84 129 119.68 129 68 129 C67.35593208 112.25423411 66.83415588 95.61664362 66.875 78.875 C66.87632935 77.27717178 66.87632935 77.27717178 66.87768555 75.64706421 C66.90065978 51.75497092 67.42617774 27.88535154 68 4 C45.89 4 23.78 4 1 4 C1 112.9 1 221.8 1 334 C22.78 334 44.56 334 67 334 C67 287.8 67 241.6 67 194 C70.18981551 192.40509224 73.64231217 192.86175479 77.14526367 192.87060547 C77.98999237 192.86885315 78.83472107 192.86710083 79.70504761 192.86529541 C82.52604176 192.86086422 85.34697384 192.8638289 88.16796875 192.8671875 C90.15676383 192.86651253 92.14555883 192.8655409 94.13435364 192.86428833 C98.33705417 192.86280784 102.53973356 192.86496873 106.74243164 192.86962891 C112.00411693 192.87519178 117.26575012 192.87204839 122.5274334 192.86617661 C148.7004478 192.84160373 174.84004795 193.16252412 201 194 C201 194.33 201 194.66 201 195 C182.12 197.56 182.12 197.56 177 195 C176.67 195.66 176.34 196.32 176 197 C176 196.34 176 195.68 176 195 C174.35 195.33 172.7 195.66 171 196 C171.99 196.66 172.98 197.32 174 198 C172.02 197.67 170.04 197.34 168 197 C168 196.34 168 195.68 168 195 C166.79472656 195.0721875 165.58945312 195.144375 164.34765625 195.21875 C139.24783222 196.60088807 114.09494069 196.37166706 89 195 C88.67 195.66 88.34 196.32 88 197 C87.67 196.67 87.34 196.34 87 196 C84.13732433 195.92674832 81.299281 195.90761795 78.4375 195.9375 C77.63119141 195.94201172 76.82488281 195.94652344 75.99414062 195.95117188 C73.99606244 195.96299482 71.99802217 195.98093086 70 196 C70.00092179 196.71029326 70.00184359 197.42058653 70.00279331 198.15240383 C70.02484779 215.4106284 70.04141118 232.66884939 70.05181217 249.92708492 C70.0569753 258.27292829 70.06401831 266.61876227 70.07543945 274.96459961 C70.08538579 282.2361877 70.09185331 289.50776899 70.09408849 296.77936369 C70.09539569 300.63199521 70.09848208 304.48460728 70.10573006 308.33723259 C70.11248948 311.95932672 70.11461712 315.58139328 70.11310768 319.20349312 C70.11351637 321.17497228 70.11891197 323.14644841 70.12442017 325.11791992 C70.1230455 326.28044785 70.12167084 327.44297577 70.12025452 328.64073181 C70.12117631 329.65746947 70.1220981 330.67420713 70.12304783 331.72175503 C70 334 70 334 69 335 C66.82194281 335.09429342 64.6407872 335.11742538 62.46069336 335.11352539 C61.77779739 335.11367142 61.09490143 335.11381744 60.39131165 335.1139679 C58.12412386 335.11326876 55.85701726 335.1054764 53.58984375 335.09765625 C52.02185613 335.09579207 50.45386793 335.09436817 48.88587952 335.09336853 C44.75123497 335.08954334 40.61662534 335.07971306 36.48199463 335.06866455 C31.52524283 335.05665582 26.56847939 335.05204819 21.61171722 335.04621124 C14.07446593 335.03650131 6.53723487 335.01807812 -1 335 C-1.84672294 296.89089138 -2.13205282 258.80289208 -2.07177609 220.68514173 C-2.0603781 213.26863648 -2.05608975 205.85213095 -2.05223143 198.43561855 C-2.04526996 185.21846821 -2.03454498 172.00132434 -2.02050781 158.78417969 C-2.01926609 157.61308485 -2.01926609 157.61308485 -2.01799929 156.41833153 C-2.01293494 151.66082655 -2.00778052 146.90332167 -2.00260353 142.1458168 C-1.99473971 134.90938585 -1.98701314 127.67295476 -1.97949219 120.43652344 C-1.97866406 119.64103477 -1.97783593 118.8455461 -1.97698271 118.02595171 C-1.96331299 104.77589592 -1.95355346 91.52583998 -1.94658184 78.27577901 C-1.94211564 70.15248051 -1.93410746 62.02920033 -1.92143703 53.9059104 C-1.91204237 47.72700504 -1.90767251 41.54810583 -1.9051857 35.36919403 C-1.90330838 32.83588471 -1.89969697 30.30257602 -1.89425278 27.76927185 C-1.88707533 24.32295259 -1.88599722 20.87668431 -1.88647461 17.43035889 C-1.88287965 16.42187102 -1.87928469 15.41338315 -1.87558079 14.37433505 C-1.87695514 13.4534224 -1.87832949 12.53250974 -1.87974548 11.58369064 C-1.87882369 10.78929415 -1.8779019 9.99489767 -1.87695217 9.17642856 C-1.92838484 6.97933764 -1.92838484 6.97933764 -2.57001591 4.83851933 C-3 3 -3 3 -2 1 C-1.34 1.33 -0.68 1.66 0 2 C0 1.34 0 0.68 0 0 Z " fill="#052244" transform="translate(223,329)"/>
<path d="M0 0 C2.8330155 0.0752128 3.98946788 0.32501117 6.07421875 2.28515625 C8.00218252 5.00671285 9.68925085 7.80865602 11.375 10.6875 C12.20404233 12.04739958 13.03628522 13.40535126 13.87109375 14.76171875 C15.75217465 17.8227134 17.61935932 20.89167257 19.48046875 23.96484375 C22.66154523 29.18883303 25.98333705 34.31552026 29.32373047 39.43847656 C32.35440126 44.09260573 35.32279105 48.78020042 38.25 53.5 C41.98152374 59.51264506 45.81351308 65.45326031 49.6875 71.375 C54.76697242 79.1472138 59.70257593 86.99796014 64.57177734 94.90332031 C68.12033763 100.6642612 71.69693323 106.40586354 75.3125 112.125 C76.02962158 113.26014038 76.02962158 113.26014038 76.76123047 114.41821289 C79.56051628 118.84167829 82.37689452 123.25385723 85.203125 127.66015625 C85.84515869 128.66312744 86.48719238 129.66609863 87.14868164 130.69946289 C88.40280689 132.65752374 89.65970701 134.6138107 90.91967773 136.56811523 C91.48630127 137.45313721 92.0529248 138.33815918 92.63671875 139.25 C93.39408325 140.42755859 93.39408325 140.42755859 94.16674805 141.62890625 C96.24170083 145.16416627 96.49912579 147.96905832 96.49525452 151.98356628 C96.49731651 153.63051231 96.49731651 153.63051231 96.49942017 155.31072998 C96.49582489 156.51554016 96.49222961 157.72035034 96.48852539 158.96166992 C96.48867142 160.23007217 96.48881744 161.49847443 96.4889679 162.80531311 C96.48925511 166.28437748 96.48337057 169.76340746 96.47639394 173.24246383 C96.47014785 176.87797481 96.4695556 180.51348656 96.46836853 184.14900208 C96.46525893 191.03377382 96.45705052 197.91852972 96.44701904 204.80329448 C96.4337578 214.10639244 96.428355 223.40949473 96.42251682 232.71259975 C96.4131104 247.37091172 96.393189 262.02919021 96.375 276.6875 C117.495 276.6875 138.615 276.6875 160.375 276.6875 C160.375 261.5075 160.375 246.3275 160.375 230.6875 C160.705 230.6875 161.035 230.6875 161.375 230.6875 C162.51520016 246.65030222 162.375 262.68402815 162.375 278.6875 C139.935 278.6875 117.495 278.6875 94.375 278.6875 C94.32601562 269.37273437 94.27703125 260.05796875 94.2265625 250.4609375 C94.19118177 244.56379274 94.15530568 238.6666579 94.1171875 232.76953125 C94.05676235 223.40708667 93.99837363 214.04466078 93.953125 204.68212891 C93.92016145 197.86346758 93.88030617 191.04488714 93.83220994 184.22631514 C93.80698827 180.61666385 93.78519427 177.0070659 93.77165604 173.39735031 C93.75640547 169.36553088 93.72576748 165.33396802 93.69384766 161.30224609 C93.69168747 160.10822174 93.68952728 158.91419739 93.68730164 157.68399048 C93.70836814 149.96018536 93.70836814 149.96018536 91.375 142.6875 C90.385 142.0275 89.395 141.3675 88.375 140.6875 C88.375 139.6975 88.375 138.7075 88.375 137.6875 C87.19846519 135.64341932 85.93111935 133.65131065 84.625 131.6875 C83.80487126 130.44344485 82.98592819 129.19860752 82.16796875 127.953125 C81.72243652 127.27701172 81.2769043 126.60089844 80.81787109 125.90429688 C77.59462303 120.95216618 74.48755924 115.92451383 71.36230469 110.91015625 C70.8727832 110.13027344 70.38326172 109.35039062 69.87890625 108.546875 C69.44392822 107.85045898 69.0089502 107.15404297 68.56079102 106.43652344 C67.35949653 104.54634675 67.35949653 104.54634675 65.375 102.6875 C64.715 102.0275 64.055 101.3675 63.375 100.6875 C63.375 100.0275 63.375 99.3675 63.375 98.6875 C61.96051016 96.14956762 60.51079759 93.66687642 59 91.1875 C58.38125 90.15302734 58.38125 90.15302734 57.75 89.09765625 C55.37260088 85.15904849 55.37260088 85.15904849 52.375 81.6875 C51.45852881 80.09923612 50.54586668 78.50867133 49.65087891 76.90820312 C46.92745933 72.16801475 43.96778624 67.56753 41.0625 62.9375 C40.42376953 61.9165625 39.78503906 60.895625 39.12695312 59.84375 C37.21385438 56.78899455 35.29500002 53.73792149 33.375 50.6875 C32.7248291 49.64916016 32.0746582 48.61082031 31.40478516 47.54101562 C30.78265137 46.55294922 30.16051758 45.56488281 29.51953125 44.546875 C28.96241455 43.65967773 28.40529785 42.77248047 27.83129883 41.85839844 C26.42046177 39.60409779 26.42046177 39.60409779 24.375 37.6875 C23.61890066 36.40043903 22.89822885 35.09237534 22.19921875 33.7734375 C19.11527198 28.12160992 15.66564838 22.72779893 12.1875 17.3125 C11.55908203 16.32894531 10.93066406 15.34539062 10.28320312 14.33203125 C8.00357219 10.76751742 5.72205048 7.20807573 3.375 3.6875 C1.395 3.3575 -0.585 3.0275 -2.625 2.6875 C-2.625 93.7675 -2.625 184.8475 -2.625 278.6875 C-26.055 278.6875 -49.485 278.6875 -73.625 278.6875 C-73.625 278.3575 -73.625 278.0275 -73.625 277.6875 C-50.855 277.6875 -28.085 277.6875 -4.625 277.6875 C-4.63023682 269.33187744 -4.63547363 260.97625488 -4.64086914 252.36743164 C-4.65690305 225.66370847 -4.66803555 198.95998543 -4.67606533 172.25625873 C-4.67731611 168.11167573 -4.67861042 163.96709274 -4.67993164 159.82250977 C-4.68019395 158.9973624 -4.68045626 158.17221503 -4.68072652 157.3220632 C-4.68508345 143.94349326 -4.69297112 130.56492759 -4.7021528 117.18636019 C-4.71148871 103.4691351 -4.71705548 89.75191226 -4.71908849 76.03468412 C-4.72046385 67.56347574 -4.72481513 59.09227945 -4.73291647 50.62107479 C-4.73818316 44.82009484 -4.73980447 39.01912117 -4.73850138 33.218139 C-4.73785788 29.86618602 -4.73941527 26.5142714 -4.74420547 23.16231918 C-4.74913523 19.53678945 -4.74800095 15.91131266 -4.74525452 12.28578186 C-4.74816736 11.21479297 -4.7510802 10.14380408 -4.75408131 9.04036099 C-4.75209026 8.07695276 -4.75009921 7.11354453 -4.74804783 6.12094212 C-4.74842755 5.28289935 -4.74880727 4.44485658 -4.7491985 3.58141857 C-4.52567608 0.17289704 -3.53149089 0.66976551 0 0 Z " fill="#051E3D" transform="translate(515.625,385.3125)"/>
<path d="M0 0 C0.8447287 -0.00175232 1.6894574 -0.00350464 2.55978394 -0.00531006 C5.38077809 -0.00974125 8.20171016 -0.00677657 11.02270508 -0.00341797 C13.01150016 -0.00409294 15.00029516 -0.00506457 16.98908997 -0.00631714 C21.19179049 -0.00779763 25.39446989 -0.00563674 29.59716797 -0.00097656 C34.85885326 0.00458631 40.12048645 0.00144292 45.38216972 -0.00442886 C71.55518413 -0.02900174 97.69478427 0.29191865 123.85473633 1.12939453 C123.85473633 1.45939453 123.85473633 1.78939453 123.85473633 2.12939453 C104.97473633 4.68939453 104.97473633 4.68939453 99.85473633 2.12939453 C99.52473633 2.78939453 99.19473633 3.44939453 98.85473633 4.12939453 C98.85473633 3.46939453 98.85473633 2.80939453 98.85473633 2.12939453 C97.20473633 2.45939453 95.55473633 2.78939453 93.85473633 3.12939453 C94.84473633 3.78939453 95.83473633 4.44939453 96.85473633 5.12939453 C94.87473633 4.79939453 92.89473633 4.46939453 90.85473633 4.12939453 C90.85473633 3.46939453 90.85473633 2.80939453 90.85473633 2.12939453 C89.64946289 2.20158203 88.44418945 2.27376953 87.20239258 2.34814453 C62.10256855 3.7302826 36.94967702 3.50106159 11.85473633 2.12939453 C11.52473633 2.78939453 11.19473633 3.44939453 10.85473633 4.12939453 C10.52473633 3.79939453 10.19473633 3.46939453 9.85473633 3.12939453 C4.24473633 3.12939453 -1.36526367 3.12939453 -7.14526367 3.12939453 C-7.14526367 48.66939453 -7.14526367 94.20939453 -7.14526367 141.12939453 C-8.13526367 141.45939453 -9.12526367 141.78939453 -10.14526367 142.12939453 C-10.14526367 95.59939453 -10.14526367 49.06939453 -10.14526367 1.12939453 C-6.95544816 -0.46551323 -3.50295151 -0.00885067 0 0 Z " fill="#092A50" transform="translate(300.145263671875,521.87060546875)"/>
<path d="M0 0 C0.33 0 0.66 0 1 0 C1.72581155 3.26066292 2.12468188 6.2749288 2.12304783 9.61328602 C2.12503888 10.51499053 2.12702993 11.41669504 2.12908131 12.34572393 C2.12616847 13.32724248 2.12325563 14.30876104 2.12025452 15.32002258 C2.12153615 16.89451488 2.12153615 16.89451488 2.12284368 18.50081509 C2.12449269 22.023103 2.11898653 25.54534343 2.11352539 29.06762695 C2.11324337 31.59049987 2.11340155 34.11337286 2.1139679 36.63624573 C2.11419572 42.07043882 2.11135662 47.50461659 2.10573006 52.93880653 C2.09760031 60.79571424 2.09499832 68.65261613 2.09374207 76.50952759 C2.09155387 89.25708744 2.08490006 102.00464089 2.07543945 114.75219727 C2.06625934 127.13468392 2.05918143 139.51716883 2.05493164 151.8996582 C2.05466892 152.66301545 2.05440619 153.4263727 2.05413551 154.21286199 C2.05283046 158.04243105 2.05156676 161.87200012 2.05032361 165.7015692 C2.03995822 197.46771847 2.0215238 229.23385584 2 261 C23.78 261 45.56 261 68 261 C68 261.33 68 261.66 68 262 C45.56 262 23.12 262 0 262 C-1.08770359 213.74394377 -1.15518903 165.51072778 -1.12856841 117.24472833 C-1.12420393 108.38812261 -1.1273491 99.531531 -1.1321975 90.67492616 C-1.13674461 82.01462487 -1.13737351 73.35432964 -1.13475883 64.69402754 C-1.13321409 59.5714094 -1.13295356 54.44880082 -1.13629532 49.32618332 C-1.13920009 44.54683095 -1.13715089 39.76750492 -1.13140106 34.98815536 C-1.13009053 33.2492019 -1.13043816 31.51024618 -1.13266373 29.77129364 C-1.14425052 19.79390903 -0.88100399 9.94615955 0 0 Z " fill="#030F27" transform="translate(222,402)"/>
<path d="M0 0 C9.02839913 7.11584106 15.14007673 18.59776072 16.5078125 29.9765625 C17.57580879 42.77344664 14.12783965 54.63653474 5.9453125 64.5390625 C0.03794185 70.92123117 -7.10866985 75.59591686 -15.4921875 77.9765625 C-18.8671875 78.1015625 -18.8671875 78.1015625 -21.4921875 77.9765625 C-19.16392402 75.64829902 -17.54396097 75.22523247 -14.4296875 74.2265625 C-3.36200753 70.2913874 4.61139486 63.56500375 10.4453125 53.3515625 C14.6685267 43.36687728 14.27400308 28.89616789 10.9453125 18.6640625 C5.90028347 7.67750103 -2.50140146 0.36017417 -13.4921875 -4.4609375 C-23.672512 -7.80135648 -36.28579596 -7.58830275 -46.109375 -3.27734375 C-58.22171201 3.0965254 -65.51250925 11.16825545 -70.4921875 23.9765625 C-70.8221875 23.9765625 -71.1521875 23.9765625 -71.4921875 23.9765625 C-71.14978432 16.10128944 -67.1337301 9.49984522 -61.7421875 3.8515625 C-59.4921875 1.9765625 -59.4921875 1.9765625 -57.4921875 1.9765625 C-57.4921875 1.3165625 -57.4921875 0.6565625 -57.4921875 -0.0234375 C-39.91435425 -13.44991013 -17.76592874 -11.89456767 0 0 Z " fill="#092749" transform="translate(809.4921875,339.0234375)"/>
<path d="M0 0 C0.77943466 0.00222061 1.55886932 0.00444122 2.36192322 0.00672913 C3.24276077 0.00680466 4.12359833 0.00688019 5.03112793 0.00695801 C5.98841293 0.01211929 6.94569794 0.01728058 7.93199158 0.02259827 C9.39480812 0.02472069 9.39480812 0.02472069 10.88717651 0.02688599 C14.01542675 0.03250319 17.14360656 0.04505859 20.27183533 0.05775452 C22.38706867 0.0627673 24.50230313 0.06733059 26.61753845 0.07142639 C31.81482829 0.0824782 37.01207678 0.09923305 42.20933533 0.12025452 C42.91835999 1.45938904 42.91835999 1.45938904 43.64170837 2.82557678 C44.27217882 4.00851529 44.90280214 5.19137233 45.53355408 6.37416077 C46.15061218 7.53504211 46.76767029 8.69592346 47.40342712 9.89198303 C53.11674026 20.10519644 62.08773478 25.80056073 73.20933533 29.12025452 C76.19762533 29.68786632 79.18246433 30.02185422 82.20933533 30.30775452 C82.98406189 30.38960999 83.75878845 30.47146545 84.55699158 30.55580139 C86.44013716 30.75341543 88.3246211 30.93820826 90.20933533 31.12025452 C90.20933533 31.78025452 90.20933533 32.44025452 90.20933533 33.12025452 C76.26914545 33.7771221 64.40654039 30.51815832 53.20933533 22.12025452 C53.20933533 21.46025452 53.20933533 20.80025452 53.20933533 20.12025452 C51.72433533 19.62525452 51.72433533 19.62525452 50.20933533 19.12025452 C48.42027283 17.01087952 48.42027283 17.01087952 46.58433533 14.37025452 C45.9733197 13.50916077 45.36230408 12.64806702 44.73277283 11.76087952 C43.21127382 9.12361457 42.75710358 7.07613602 42.20933533 4.12025452 C36.97327422 1.50222396 28.69737111 2.72150993 22.87095642 2.66029358 C20.93678513 2.63369589 19.00275544 2.59278052 17.06919861 2.5372467 C14.2767878 2.45799552 11.48708178 2.42496821 8.69371033 2.40150452 C7.8341272 2.36851257 6.97454407 2.33552063 6.08891296 2.30152893 C2.54038149 2.31329561 0.17053808 2.3331266 -2.63990784 4.63459778 C-4.16630798 6.3982033 -5.49438668 8.18337753 -6.79066467 10.12025452 C-7.47128967 10.99166077 -8.15191467 11.86306702 -8.85316467 12.76087952 C-9.81222717 14.05252014 -9.81222717 14.05252014 -10.79066467 15.37025452 C-11.94502014 16.9229303 -11.94502014 16.9229303 -13.12269592 18.50697327 C-14.012452 19.7110804 -14.90174082 20.91553288 -15.79066467 22.12025452 C-16.30161682 22.81199768 -16.81256897 23.50374084 -17.33900452 24.21644592 C-21.49595648 29.8463433 -25.6436227 35.48305588 -29.79066467 41.12025452 C-32.29004926 44.51654131 -34.79021501 47.91225182 -37.29066467 51.30775452 C-37.85358215 52.07289368 -38.41649963 52.83803284 -38.99647522 53.62635803 C-40.06754595 55.08090049 -41.14078263 56.53385115 -42.21644592 57.98500061 C-43.3074297 59.46479964 -44.38745291 60.95271821 -45.45863342 62.44691467 C-45.99101624 63.18087463 -46.52339905 63.91483459 -47.07191467 64.67103577 C-47.5469342 65.33401672 -48.02195374 65.99699768 -48.5113678 66.68006897 C-48.93353577 67.1553302 -49.35570374 67.63059143 -49.79066467 68.12025452 C-50.45066467 68.12025452 -51.11066467 68.12025452 -51.79066467 68.12025452 C-50.46692484 65.32749575 -48.98676194 62.85531579 -47.17347717 60.35462952 C-46.65535461 59.63799133 -46.13723206 58.92135315 -45.60340881 58.18299866 C-44.76797546 57.03819031 -44.76797546 57.03819031 -43.91566467 55.87025452 C-43.33486145 55.07031067 -42.75405823 54.27036682 -42.15565491 53.44618225 C-37.95289113 47.67344346 -33.69233186 41.94586051 -29.39173889 36.2457428 C-25.39533173 30.94561764 -21.46496532 25.598905 -17.54066467 20.24525452 C-2.81920923 0.18932782 -2.81920923 0.18932782 0 0 Z " fill="#061F3F" transform="translate(696.7906646728516,385.87974548339844)"/>
<path d="M0 0 C0.80475266 0.00202423 1.60950531 0.00404846 2.43864441 0.00613403 C3.28322708 0.00438171 4.12780975 0.00262939 4.99798584 0.00082397 C7.82441709 -0.00361465 10.6507866 -0.00063974 13.47721863 0.00271606 C15.46744295 0.00204124 17.45766719 0.00106973 19.44789124 -0.00018311 C23.6565681 -0.00166462 27.86522389 0.00050034 32.07389832 0.00515747 C37.34345904 0.01071702 42.6129677 0.00757982 47.8825264 0.00170517 C74.07281503 -0.02286015 100.22969313 0.29720372 126.40690613 1.13552856 C126.40690613 1.46552856 126.40690613 1.79552856 126.40690613 2.13552856 C107.52690613 4.69552856 107.52690613 4.69552856 102.40690613 2.13552856 C102.07690613 2.79552856 101.74690613 3.45552856 101.40690613 4.13552856 C101.40690613 3.47552856 101.40690613 2.81552856 101.40690613 2.13552856 C99.75690613 2.46552856 98.10690613 2.79552856 96.40690613 3.13552856 C97.39690613 3.79552856 98.38690613 4.45552856 99.40690613 5.13552856 C97.42690613 4.80552856 95.44690613 4.47552856 93.40690613 4.13552856 C93.40690613 3.47552856 93.40690613 2.81552856 93.40690613 2.13552856 C92.20163269 2.20771606 90.99635925 2.27990356 89.75456238 2.35427856 C64.65473835 3.73641663 39.50184682 3.50719562 14.40690613 2.13552856 C14.07690613 2.79552856 13.74690613 3.45552856 13.40690613 4.13552856 C13.07690613 3.80552856 12.74690613 3.47552856 12.40690613 3.13552856 C9.54423046 3.06227688 6.70618713 3.04314651 3.84440613 3.07302856 C3.03809753 3.07754028 2.23178894 3.082052 1.40104675 3.08670044 C-0.59703143 3.09852339 -2.5950717 3.11645942 -4.59309387 3.13552856 C-4.92309387 6.43552856 -5.25309387 9.73552856 -5.59309387 13.13552856 C-5.92309387 13.13552856 -6.25309387 13.13552856 -6.59309387 13.13552856 C-6.6199594 11.15643459 -6.63942763 9.17723886 -6.65559387 7.19802856 C-6.66719543 6.09588013 -6.678797 4.99373169 -6.69075012 3.85818481 C-6.51633441 -1.00452521 -4.30558914 0.01668798 0 0 Z " fill="#051D3E" transform="translate(297.5930938720703,521.8644714355469)"/>
<path d="M0 0 C3.81951858 2.68357394 6.33782068 5.3506033 7.6875 9.875 C8.5200194 16.27678712 8.40979055 23.35663918 4.6875 28.875 C-0.5738485 33.24674851 -6.46004925 34.20110795 -13.07421875 34.08203125 C-18.3654223 33.59261801 -21.3372595 31.0453527 -24.6875 27.1875 C-25.57256326 26.09138319 -26.45115982 24.9898552 -27.3125 23.875 C-26.9825 23.215 -26.6525 22.555 -26.3125 21.875 C-25.838125 22.6175 -25.36375 23.36 -24.875 24.125 C-20.91703316 28.37257417 -16.55612427 30.62624085 -10.71484375 31.07421875 C-4.66754834 30.75497993 -1.42597737 29.29698818 2.6875 24.875 C5.40919447 20.3888967 5.32372924 15.98054325 4.6875 10.875 C3.40682709 7.15066474 1.48510155 4.53966796 -1.5625 2 C-6.57984082 -0.05254852 -10.7297907 -0.36643023 -16 0.4375 C-21.04261097 2.62580288 -23.4338566 5.810188 -25.5625 10.8125 C-26.38080189 14.1538994 -26.90277647 17.46063726 -27.3125 20.875 C-29.78425718 17.16736423 -29.56890439 15.55864157 -28.984375 11.29296875 C-27.51251616 5.9959884 -24.03819092 2.14872425 -19.6875 -1.0625 C-12.999069 -4.05469282 -6.39011959 -3.63102122 0 0 Z " fill="#08274C" transform="translate(791.3125,358.125)"/>
<path d="M0 0 C0.2784375 0.5671875 0.556875 1.134375 0.84375 1.71875 C1.60222785 3.21520631 2.39322659 4.69570858 3.21875 6.15625 C9.7863145 18.1700875 9.30213638 31.03328892 9.265625 44.34765625 C9.26697498 46.09451857 9.26891828 47.84138053 9.27142334 49.58824158 C9.27435192 53.22317127 9.27014586 56.85800185 9.26074219 60.49291992 C9.24927204 65.1534885 9.25596881 69.8138286 9.26788712 74.47438908 C9.27510203 78.06969437 9.27282082 81.66494509 9.26763153 85.260252 C9.26629797 86.9798733 9.2679325 88.69949956 9.27259064 90.41911507 C9.27765816 92.81217831 9.26994615 95.20486527 9.25878906 97.59790039 C9.26283752 98.30697037 9.26688599 99.01604034 9.27105713 99.74659729 C9.23948272 103.39411868 9.08333514 104.87499729 7 108 C6.99413376 106.93226349 6.98826752 105.86452698 6.98222351 104.76443481 C6.92485954 94.67212912 6.85202695 84.58003607 6.76428509 74.48794746 C6.71967338 69.30024919 6.68039714 64.1126278 6.65356445 58.92480469 C6.62743952 53.91257806 6.58697261 48.90064871 6.53681374 43.88860703 C6.52020698 41.98222443 6.50865433 40.07579048 6.50238609 38.16934586 C6.83423318 22.13514608 6.83423318 22.13514608 0.75 7.6875 C-1 5 -1 5 -0.75 2.125 C-0.5025 1.42375 -0.255 0.7225 0 0 Z " fill="#092341" transform="translate(669,498)"/>
<path d="M0 0 C0.33 0 0.66 0 1 0 C1.0154612 1.61825935 1.0154612 1.61825935 1.03123474 3.26921082 C1.12899369 13.43656507 1.23173018 23.60385848 1.33933926 33.7711134 C1.39450203 38.99818528 1.44791139 44.22526283 1.49731445 49.45239258 C1.54505604 54.49690375 1.59740234 59.54134805 1.65294075 64.58577919 C1.67331994 66.51027066 1.69204026 68.43478044 1.70907402 70.35930443 C1.73321633 73.05495185 1.76325732 75.75047387 1.79467773 78.44604492 C1.8004332 79.24158279 1.80618866 80.03712067 1.81211853 80.85676575 C1.86298183 84.69616028 2.12388828 88.26077242 3 92 C3.11678799 94.67678073 3.0454506 97.31841457 3 100 C2.67 100 2.34 100 2 100 C1.67 113.86 1.34 127.72 1 142 C0.67 142 0.34 142 0 142 C0 95.14 0 48.28 0 0 Z " fill="#043869" transform="translate(675,519)"/>
<path d="M0 0 C4.51005734 -0.02398967 8.69294353 0.10318485 13.10546875 1.02246094 C13.60046875 2.01246094 13.60046875 2.01246094 14.10546875 3.02246094 C13.52188599 3.03054779 12.93830322 3.03863464 12.33703613 3.04696655 C6.23684721 3.13334314 0.13697093 3.2328594 -5.96289062 3.33984375 C-8.23627451 3.37801383 -10.50971633 3.41288713 -12.78320312 3.44433594 C-16.06010576 3.49024701 -19.33661369 3.54819826 -22.61328125 3.60839844 C-23.62193237 3.61994965 -24.6305835 3.63150085 -25.6697998 3.6434021 C-31.3974802 3.76190293 -36.39570994 4.39677207 -41.89453125 6.02246094 C-41.89453125 6.68246094 -41.89453125 7.34246094 -41.89453125 8.02246094 C-43.25 9.35449219 -43.25 9.35449219 -45.08203125 10.83496094 C-48.20680935 13.41988916 -51.07116522 16.11353836 -53.89453125 19.02246094 C-51.99112885 12.25480794 -46.89427022 7.14275939 -41.1796875 3.32324219 C-34.41476733 -0.28775783 -26.86067254 0.23710157 -19.39453125 0.20996094 C-17.92183884 0.18676254 -16.44917905 0.16138633 -14.9765625 0.13378906 C-9.98440394 0.0482742 -4.99266011 0.03874196 0 0 Z " fill="#031A3E" transform="translate(722.89453125,360.9775390625)"/>
<path d="M0 0 C2.93261115 3.26048034 3.37501446 5.38773325 3.37231445 9.73071289 C3.37854324 10.8819313 3.38477203 12.03314972 3.39118958 13.21925354 C3.38197983 14.45787643 3.37277008 15.69649933 3.36328125 16.97265625 C3.36377975 18.24725204 3.36427826 19.52184784 3.36479187 20.83506775 C3.36245123 23.5294316 3.35430174 26.22300916 3.33618164 28.91723633 C3.31347179 32.36964252 3.31295588 35.82161132 3.31969929 39.27407169 C3.32384415 42.56946618 3.31186845 45.864783 3.30078125 49.16015625 C3.30169266 50.40080338 3.30260406 51.6414505 3.30354309 52.91969299 C3.29401108 54.06775925 3.28447906 55.2158255 3.2746582 56.39868164 C3.26774712 57.91613731 3.26774712 57.91613731 3.26069641 59.46424866 C3 62 3 62 1 65 C0.0562034 50.59193934 -0.12273839 36.248119 -0.0625 21.8125 C-0.05746789 19.68294378 -0.05290805 17.55338638 -0.04882812 15.42382812 C-0.03797432 10.28252237 -0.0208071 5.14127471 0 0 Z " fill="#082B52" transform="translate(290,386)"/>
<path d="M0 0 C3.19267711 0.31002146 4.61339633 0.57146535 6.80078125 2.99609375 C7.29964844 3.80175781 7.79851563 4.60742188 8.3125 5.4375 C8.82425781 6.24058594 9.33601562 7.04367187 9.86328125 7.87109375 C11 10 11 10 11 12 C11.556875 12.27714844 12.11375 12.55429687 12.6875 12.83984375 C14.27500173 13.63627621 15.8581404 14.44144722 17.4375 15.25390625 C18.283125 15.68574219 19.12875 16.11757813 20 16.5625 C20.845625 16.99691406 21.69125 17.43132812 22.5625 17.87890625 C30.59050734 21.57127501 40.4856854 20.58405853 49 19 C47 22 47 22 44 23 C31.50034252 23.87440264 21.43248204 23.14450414 11.5625 14.625 C8.14083051 11.32300735 5.24982017 8.19284668 3 4 C3 3.34 3 2.68 3 2 C1.35 3.32 -0.3 4.64 -2 6 C-2.66 5.67 -3.32 5.34 -4 5 C-2.68 3.35 -1.36 1.7 0 0 Z " fill="#092849" transform="translate(692,471)"/>
<path d="M0 0 C0.88171875 0.32677734 0.88171875 0.32677734 1.78125 0.66015625 C0.646875 1.25828125 -0.4875 1.85640625 -1.65625 2.47265625 C-6.40662425 5.43642226 -9.41853305 9.28553046 -12.84375 13.65625 C-15.33745115 16.81028978 -17.91834437 19.84801858 -20.59375 22.84765625 C-21.40585937 23.76933594 -22.21796875 24.69101562 -23.0546875 25.640625 C-25.21875 27.66015625 -25.21875 27.66015625 -28.21875 27.66015625 C-29.75268555 25.82421875 -29.75268555 25.82421875 -31.35546875 23.28515625 C-31.93232422 22.3828125 -32.50917969 21.48046875 -33.10351562 20.55078125 C-33.69841797 19.596875 -34.29332031 18.64296875 -34.90625 17.66015625 C-35.51275391 16.70625 -36.11925781 15.75234375 -36.74414062 14.76953125 C-38.24525525 12.40557122 -39.7361944 10.03578337 -41.21875 7.66015625 C-40.55875 7.00015625 -39.89875 6.34015625 -39.21875 5.66015625 C-39.21875 6.65015625 -39.21875 7.64015625 -39.21875 8.66015625 C-38.55875 8.66015625 -37.89875 8.66015625 -37.21875 8.66015625 C-35.41806985 11.08664656 -33.74038451 13.50754922 -32.09375 16.03515625 C-31.62582031 16.73382813 -31.15789063 17.4325 -30.67578125 18.15234375 C-27.21875 23.39332407 -27.21875 23.39332407 -27.21875 25.66015625 C-23.90844226 22.45272828 -20.87100138 19.1335979 -17.91796875 15.59594727 C-4.34257428 -0.66514782 -4.34257428 -0.66514782 0 0 Z " fill="#062446" transform="translate(683.21875,449.33984375)"/>
<path d="M0 0 C0.66 0 1.32 0 2 0 C2.54527344 1.06927734 2.54527344 1.06927734 3.1015625 2.16015625 C9.56324393 14.47048779 16.5793522 21.52773907 29.83251953 26.35302734 C33.5013169 27.44812906 37.1991421 27.82849349 41 28.1875 C41.77472656 28.26935547 42.54945313 28.35121094 43.34765625 28.43554688 C45.23080183 28.63316092 47.11528577 28.81795374 49 29 C49 29.66 49 30.32 49 31 C35.05981012 31.65686759 23.19720507 28.3979038 12 20 C12 19.34 12 18.68 12 18 C11.01 17.67 10.02 17.34 9 17 C7.2109375 14.890625 7.2109375 14.890625 5.375 12.25 C4.76398437 11.38890625 4.15296875 10.5278125 3.5234375 9.640625 C2.00193849 7.00336006 1.54776825 4.95588151 1 2 C0.34 1.67 -0.32 1.34 -1 1 C-0.67 0.67 -0.34 0.34 0 0 Z " fill="#0B2C4F" transform="translate(738,388)"/>
<path d="M0 0 C0.33 0 0.66 0 1 0 C1 36.3 1 72.6 1 110 C0.67 110 0.34 110 0 110 C-0.01030746 109.38247864 -0.02061493 108.76495728 -0.03123474 108.12872314 C-0.13936746 101.70484982 -0.25396011 95.28111484 -0.37231445 88.85742188 C-0.41564155 86.45966485 -0.45731822 84.0618774 -0.49731445 81.6640625 C-0.55507063 78.21865674 -0.61875006 74.77340375 -0.68359375 71.328125 C-0.70030624 70.25508118 -0.71701874 69.18203735 -0.73423767 68.07647705 C-0.75418289 67.07574158 -0.77412811 66.0750061 -0.79467773 65.04394531 C-0.81022202 64.16458313 -0.8257663 63.28522095 -0.84178162 62.37921143 C-0.99132687 60.13042229 -1.37538172 58.16009502 -2 56 C-1.34 56 -0.68 56 0 56 C0 37.52 0 19.04 0 0 Z " fill="#032550" transform="translate(223,552)"/>
<path d="M0 0 C0.99 0.33 1.98 0.66 3 1 C2.14322917 2.16276042 1.28645833 3.32552083 0.4296875 4.48828125 C-0.41045898 5.62849731 -0.41045898 5.62849731 -1.26757812 6.79174805 C-2.51883591 8.48986012 -3.7701389 10.18793887 -5.02148438 11.88598633 C-8.29401413 16.32686806 -11.56584457 20.76826101 -14.8359375 25.2109375 C-15.45065918 26.04584717 -16.06538086 26.88075684 -16.69873047 27.7409668 C-17.86730804 29.3281606 -19.03561844 30.91555115 -20.20361328 32.50317383 C-23.77648457 37.35510964 -27.37647691 42.18577417 -31 47 C-31.495 45.515 -31.495 45.515 -32 44 C-31.05053711 42.21679688 -31.05053711 42.21679688 -29.52734375 40.21875 C-28.9638623 39.46811279 -28.40038086 38.71747559 -27.81982422 37.9440918 C-27.19865723 37.1375415 -26.57749023 36.33099121 -25.9375 35.5 C-24.64688805 33.78794687 -23.35653103 32.07570153 -22.06640625 30.36328125 C-21.0611792 29.03997803 -21.0611792 29.03997803 -20.03564453 27.68994141 C-16.77709566 23.38402974 -13.5766974 19.03574831 -10.375 14.6875 C-9.79613037 13.90632813 -9.21726074 13.12515625 -8.62084961 12.3203125 C-5.6346801 8.27960659 -2.74376768 4.20934115 0 0 Z " fill="#08284B" transform="translate(663,385)"/>
<path d="M0 0 C3.94510535 4.32635503 7.59204844 8.89838861 7.984375 14.9140625 C7.8915625 15.9659375 7.8915625 15.9659375 7.796875 17.0390625 C5.796875 14.0390625 5.796875 14.0390625 4.60546875 11.8046875 C-0.02022102 3.31766695 -5.8550165 -2.09057387 -14.98681641 -5.35620117 C-18.85459576 -6.41155361 -22.71286812 -6.53470868 -26.703125 -6.6484375 C-27.52554688 -6.68259766 -28.34796875 -6.71675781 -29.1953125 -6.75195312 C-31.1974705 -6.8334363 -33.20027068 -6.89888325 -35.203125 -6.9609375 C-34.873125 -7.6209375 -34.543125 -8.2809375 -34.203125 -8.9609375 C-22.31850278 -11.65179536 -9.10666545 -8.10557811 0 0 Z " fill="#072548" transform="translate(753.203125,433.9609375)"/>
<path d="M0 0 C0.33 0 0.66 0 1 0 C2.18225954 6.15344722 2.61289961 11.58677415 -1 17 C-6.25048905 21.37751617 -12.15433503 22.32598579 -18.76171875 22.20703125 C-24.0529223 21.71761801 -27.0247595 19.1703527 -30.375 15.3125 C-31.26006326 14.21638319 -32.13865982 13.1148552 -33 12 C-32.67 11.34 -32.34 10.68 -32 10 C-31.525625 10.7425 -31.05125 11.485 -30.5625 12.25 C-26.60453316 16.49757417 -22.24362427 18.75124085 -16.40234375 19.19921875 C-10.35504834 18.87997993 -7.11347737 17.42198818 -3 13 C-1.25290782 10.07392604 -0.67327419 7.6304408 -0.375 4.25 C-0.30023437 3.45078125 -0.22546875 2.6515625 -0.1484375 1.828125 C-0.09945312 1.22484375 -0.05046875 0.6215625 0 0 Z " fill="#052347" transform="translate(797,370)"/>
<path d="M0 0 C0.66 0 1.32 0 2 0 C3.92746528 10.70556018 1.66256458 19.55068034 -4.1875 28.69140625 C-7.1661646 32.48535189 -10.66830621 35.81840149 -15 38 C-17.2734375 37.67578125 -17.2734375 37.67578125 -19 37 C-18.40832031 36.63648438 -17.81664062 36.27296875 -17.20703125 35.8984375 C-8.80763142 30.55461053 -3.53528394 24.77351959 -1 15 C-0.31149964 10.02482556 -0.1337908 5.01715487 0 0 Z " fill="#0B2543" transform="translate(761,452)"/>
<path d="M0 0 C1.05409058 0.02361099 2.10818115 0.04722198 3.19421387 0.07154846 C6.53588124 0.14765747 9.87728533 0.23190668 13.21875 0.31640625 C15.49477911 0.36967984 17.77082078 0.42241981 20.046875 0.47460938 C25.60432686 0.60320051 31.16158572 0.73846194 36.71875 0.87890625 C36.71875 1.20890625 36.71875 1.53890625 36.71875 1.87890625 C17.83875 4.43890625 17.83875 4.43890625 12.71875 1.87890625 C12.38875 2.53890625 12.05875 3.19890625 11.71875 3.87890625 C11.71875 3.21890625 11.71875 2.55890625 11.71875 1.87890625 C10.06875 2.20890625 8.41875 2.53890625 6.71875 2.87890625 C7.70875 3.53890625 8.69875 4.19890625 9.71875 4.87890625 C6.74875 4.38390625 6.74875 4.38390625 3.71875 3.87890625 C3.71875 3.21890625 3.71875 2.55890625 3.71875 1.87890625 C2.72875 1.96269531 1.73875 2.04648437 0.71875 2.1328125 C-6.06922045 2.66963162 -12.53788655 3.11748321 -19.28125 1.87890625 C-19.28125 1.54890625 -19.28125 1.21890625 -19.28125 0.87890625 C-12.78990623 -0.12105698 -6.55718315 -0.17575341 0 0 Z " fill="#071732" transform="translate(387.28125,522.12109375)"/>
<path d="M0 0 C0.33 0 0.66 0 1 0 C1 3.96 1 7.92 1 12 C1.66 12.33 2.32 12.66 3 13 C3 16.3 3 19.6 3 23 C2.67 23 2.34 23 2 23 C1.67 32.9 1.34 42.8 1 53 C0.67 53 0.34 53 0 53 C0 35.51 0 18.02 0 0 Z " fill="#063260" transform="translate(290,523)"/>
<path d="M0 0 C-0.33 0.66 -0.66 1.32 -1 2 C-3.33247815 2.62852934 -5.69291467 3.15535246 -8.0625 3.625 C-9.35285156 3.88539063 -10.64320313 4.14578125 -11.97265625 4.4140625 C-12.97167969 4.60742188 -13.97070312 4.80078125 -15 5 C-15 5.66 -15 6.32 -15 7 C-16.35546875 8.33203125 -16.35546875 8.33203125 -18.1875 9.8125 C-21.3122781 12.39742822 -24.17663397 15.09107743 -27 18 C-25.04512398 11.04932972 -19.63811152 5.70685684 -13.625 2 C-8.94244781 -0.40978159 -5.19475825 -0.4122824 0 0 Z " fill="#092B50" transform="translate(696,362)"/>
<path d="M0 0 C6.77379826 0.17248097 11.81461181 1.49351139 17 6 C21.13969689 10.58281938 21.3911076 15.05595713 21.140625 21.05859375 C21.07101562 22.01958984 21.07101562 22.01958984 21 23 C20.67 23 20.34 23 20 23 C19.95875 21.865625 19.9175 20.73125 19.875 19.5625 C19.11332926 14.05503465 17.04821105 9.84360832 13 6 C8.79544687 3.85278165 4.52246957 2.3352692 0 1 C0 0.67 0 0.34 0 0 Z " fill="#072040" transform="translate(778,355)"/>
<path d="M0 0 C0.33 0 0.66 0 1 0 C1.0825 1.2375 1.165 2.475 1.25 3.75 C1.62861676 6.56471667 1.98319851 7.97269758 3.5 10.4375 C7.18488858 12.74055536 10.69386111 13.0966836 15 13 C18.42825684 12.1950483 18.42825684 12.1950483 21 11 C21 11.66 21 12.32 21 13 C16.46139393 15.65674502 13.2582423 16.65728029 8 16 C4.89960457 14.24505919 2.51174333 12.51174333 0 10 C-0.1953125 7.6171875 -0.1953125 7.6171875 -0.125 4.875 C-0.10695313 3.96492188 -0.08890625 3.05484375 -0.0703125 2.1171875 C-0.04710937 1.41851562 -0.02390625 0.71984375 0 0 Z " fill="#062343" transform="translate(716,455)"/>
<path d="M0 0 C-0.70125 0.32871094 -1.4025 0.65742188 -2.125 0.99609375 C-10.97926079 5.43525439 -16.18029966 11.15759893 -22 19 C-21.66085108 13.57361735 -18.53114806 9.87971632 -15 6 C-6.0144848 -1.86656425 -6.0144848 -1.86656425 0 0 Z " fill="#072445" transform="translate(717,428)"/>
<path d="M0 0 C-2.63759281 2.63759281 -4.32530374 2.45032991 -8 2.875 C-13.45973974 3.62639592 -18.05730275 4.94550074 -23.07421875 7.1953125 C-25 8 -25 8 -27 8 C-27 7.34 -27 6.68 -27 6 C-17.85181304 1.10512594 -10.3773193 -0.3067188 0 0 Z " fill="#082242" transform="translate(784,330)"/>
<path d="M0 0 C0.33 0 0.66 0 1 0 C2.18516437 6.16856638 2.5974256 11.56715317 -1 17 C-3.31546011 19.07592975 -5.00989233 19.81426765 -8 21 C-10.9375 20.75 -10.9375 20.75 -13 20 C-12.195625 19.6596875 -12.195625 19.6596875 -11.375 19.3125 C-6.8020353 16.78533529 -2.97843485 13.91011559 -1 9 C-0.55188863 6.64435404 -0.55188863 6.64435404 -0.375 4.25 C-0.30023437 3.45078125 -0.22546875 2.6515625 -0.1484375 1.828125 C-0.09945312 1.22484375 -0.05046875 0.6215625 0 0 Z " fill="#0A345D" transform="translate(797,370)"/>
<path d="M0 0 C6.76677777 2.50621399 10.09508614 9.389967 13.0625 15.51953125 C14.34950167 18.92472317 14.39058733 21.4065966 14 25 C12.11431467 22.17147201 11.36062611 20.13848198 10.375 16.9375 C8.41852299 11.32943041 5.4689038 7.36365878 1.609375 2.8984375 C0 1 0 1 0 0 Z " fill="#082140" transform="translate(810,342)"/>
<path d="M0 0 C0.2784375 0.56589844 0.556875 1.13179688 0.84375 1.71484375 C1.6063838 3.22207609 2.39773709 4.71516188 3.21875 6.19140625 C6.55073711 12.3576141 8.11624836 18.06189013 9 25 C8.34 25 7.68 25 7 25 C6.75765625 24.05898438 6.5153125 23.11796875 6.265625 22.1484375 C5.93046875 20.90320313 5.5953125 19.65796875 5.25 18.375 C4.92515625 17.14523437 4.6003125 15.91546875 4.265625 14.6484375 C2.97445309 10.92635552 1.19773581 8.24072908 -1 5 C-0.75 2.125 -0.75 2.125 0 0 Z " fill="#072241" transform="translate(669,498)"/>
<path d="M0 0 C0.33 0 0.66 0 1 0 C1.81243525 3.55924014 2.13524922 6.85127695 2.125 10.5 C2.12757813 11.4178125 2.13015625 12.335625 2.1328125 13.28125 C2.00244035 15.95004454 1.59378606 18.39865153 1 21 C-1.42161179 17.36758231 -1.26331995 14.69004984 -1.1875 10.5 C-1.18685547 9.82324219 -1.18621094 9.14648438 -1.18554688 8.44921875 C-1.15821603 5.36994397 -0.98032509 2.94097526 0 0 Z " fill="#0D2F51" transform="translate(824,364)"/>
<path d="M0 0 C0.33 0.99 0.66 1.98 1 3 C-0.03222656 4.7175293 -0.03222656 4.7175293 -1.640625 6.57421875 C-2.50494141 7.57485352 -2.50494141 7.57485352 -3.38671875 8.59570312 C-4.00160156 9.28599609 -4.61648438 9.97628906 -5.25 10.6875 C-5.84941406 11.38939453 -6.44882812 12.09128906 -7.06640625 12.81445312 C-10.43599492 16.65847391 -10.43599492 16.65847391 -12 18 C-12.99 18 -13.98 18 -15 18 C-14.25234375 17.11957031 -13.5046875 16.23914063 -12.734375 15.33203125 C-11.73954698 14.158885 -10.74475735 12.98570618 -9.75 11.8125 C-9.25886719 11.23435547 -8.76773438 10.65621094 -8.26171875 10.06054688 C-5.45420944 6.74768589 -2.69431092 3.4063788 0 0 Z " fill="#092546" transform="translate(686,478)"/>
<path d="M0 0 C4.89983226 -0.51577182 7.96027923 -0.56131112 12 2.4375 C14.11802639 4.44025965 14.91231868 5.51419811 15.43359375 8.40234375 C15.43713766 10.64563808 15.31082402 12.77982846 15 15 C13.89472119 12.84424959 12.92698225 10.79137785 12.125 8.5 C10.78135096 5.51411324 9.61784823 3.98107434 7 2 C3.35278304 1.19234122 3.35278304 1.19234122 0 1 C0 0.67 0 0.34 0 0 Z " fill="#082141" transform="translate(724,448)"/>
<path d="M0 0 C3.14480675 2.94259079 5.49230126 6.00060534 7.8125 9.625 C8.43769531 10.58664062 9.06289063 11.54828125 9.70703125 12.5390625 C10.13371094 13.35117187 10.56039062 14.16328125 11 15 C10.67 15.66 10.34 16.32 10 17 C7.02430637 14.21190445 4.83951712 11.43585821 2.75 7.9375 C1.96882812 6.65166016 1.96882812 6.65166016 1.171875 5.33984375 C0 3 0 3 0 0 Z " fill="#062141" transform="translate(590,498)"/>
<path d="M0 0 C2.68234235 2.42457972 4.36856725 5.07510397 6.1875 8.1875 C6.71730469 9.08855469 7.24710938 9.98960937 7.79296875 10.91796875 C8.19128906 11.60503906 8.58960938 12.29210937 9 13 C8.34 13.66 7.68 14.32 7 15 C6.52949219 14.14535156 6.05898438 13.29070312 5.57421875 12.41015625 C4.95160156 11.30542969 4.32898438 10.20070313 3.6875 9.0625 C2.76517578 7.40927734 2.76517578 7.40927734 1.82421875 5.72265625 C0.22481841 2.73487704 0.22481841 2.73487704 -3 2 C-2.01 1.34 -1.02 0.68 0 0 Z " fill="#082C51" transform="translate(582,485)"/>
<path d="M0 0 C-0.33 0.66 -0.66 1.32 -1 2 C-3.6171875 2.81640625 -3.6171875 2.81640625 -6.875 3.5625 C-9.9766604 4.28372947 -12.9781429 4.9927143 -16 6 C-15 3 -15 3 -12.5 1.3125 C-8.17404258 -0.30973403 -4.55938053 -0.27356283 0 0 Z " fill="#092343" transform="translate(696,362)"/>
<path d="M0 0 C0 0.33 0 0.66 0 1 C-0.92232422 1.16435547 -0.92232422 1.16435547 -1.86328125 1.33203125 C-2.67152344 1.49058594 -3.47976563 1.64914062 -4.3125 1.8125 C-5.51326172 2.03873047 -5.51326172 2.03873047 -6.73828125 2.26953125 C-9.31793453 3.10268352 -10.39223789 3.82952115 -12 6 C-12.57017808 8.04100238 -12.57017808 8.04100238 -12.6875 10.1875 C-12.790625 11.445625 -12.89375 12.70375 -13 14 C-13.33 14 -13.66 14 -14 14 C-14.88845015 5.52681803 -14.88845015 5.52681803 -12.9453125 2.1875 C-8.68255211 -1.86788285 -5.27048189 -1.18131491 0 0 Z " fill="#0D3A63" transform="translate(731,449)"/>
<path d="M0 0 C1.70884005 1.62339805 3.37446717 3.29319053 5 5 C5 5.66 5 6.32 5 7 C6.32 7.66 7.64 8.32 9 9 C8.01 9.33 7.02 9.66 6 10 C4.99106869 8.90398831 3.99311775 7.79786082 3 6.6875 C2.1646875 5.76517578 2.1646875 5.76517578 1.3125 4.82421875 C0 3 0 3 0 0 Z " fill="#061E3D" transform="translate(698,476)"/>
<path d="M0 0 C0.33 0 0.66 0 1 0 C1.02721176 1.89575251 1.04649136 3.79161979 1.0625 5.6875 C1.07410156 6.74324219 1.08570313 7.79898438 1.09765625 8.88671875 C1.00865425 11.72410262 0.64939838 14.2438919 0 17 C-0.33 17 -0.66 17 -1 17 C-1.87890625 10.84765625 -1.87890625 10.84765625 -2 9 C-1.67 8.67 -1.34 8.34 -1 8 C-0.76924918 6.65252916 -0.58846937 5.29622435 -0.4375 3.9375 C-0.293125 2.638125 -0.14875 1.33875 0 0 Z " fill="#041939" transform="translate(223,512)"/>
<path d="M0 0 C4.41889613 1.35021826 6.34345343 3.26115668 9 7 C5.13066838 6.42676569 2.84777943 4.61046448 0 2 C0 1.34 0 0.68 0 0 Z " fill="#0A2F55" transform="translate(746,430)"/>
<path d="M0 0 C-1.45449401 1.0055761 -2.91372443 2.00430435 -4.375 3 C-5.59316406 3.8353125 -5.59316406 3.8353125 -6.8359375 4.6875 C-9 6 -9 6 -11 6 C-9.89210592 2.67631776 -9.51563783 2.38436907 -6.625 0.75 C-6.01914062 0.39421875 -5.41328125 0.0384375 -4.7890625 -0.328125 C-3 -1 -3 -1 0 0 Z " fill="#0E2B4A" transform="translate(811,408)"/>
<path d="M0 0 C0.33 0.66 0.66 1.32 1 2 C-0.98 4.31 -2.96 6.62 -5 9 C-5.66 8.67 -6.32 8.34 -7 8 C-4.69 5.36 -2.38 2.72 0 0 Z " fill="#061F3D" transform="translate(678,488)"/>
<path d="M0 0 C2.93200474 2.85276137 5.64315404 5.65079784 8 9 C4.11980141 7.74155722 2.0588158 6.57583797 0 3 C0 2.01 0 1.02 0 0 Z " fill="#072341" transform="translate(744,398)"/>
<path d="M0 0 C6.75 0.875 6.75 0.875 9 2 C9 2.66 9 3.32 9 4 C6.03 3.01 3.06 2.02 0 1 C0 0.67 0 0.34 0 0 Z " fill="#062547" transform="translate(737,427)"/>
<path d="M0 0 C2.31 0 4.62 0 7 0 C7 0.33 7 0.66 7 1 C4.69 1 2.38 1 0 1 C0 0.67 0 0.34 0 0 Z " fill="#124D7E" transform="translate(721,495)"/>
<path d="M0 0 C4 1 4 1 4 1 Z " fill="#124E82" transform="translate(304,525)"/>
<path d="M0 0 C0.99 1.485 0.99 1.485 2 3 C1.34 3 0.68 3 0 3 C0 2.01 0 1.02 0 0 Z " fill="#104D7F" transform="translate(593,507)"/>
<path d="M0 0 C0.66 0.66 1.32 1.32 2 2 C1.34 2 0.68 2 0 2 C0 1.34 0 0.68 0 0 Z " fill="#104D7F" transform="translate(640,410)"/>
<path d="M0 0 C0.66 0.66 1.32 1.32 2 2 C1.34 2 0.68 2 0 2 C0 1.34 0 0.68 0 0 Z " fill="#0F4C7D" transform="translate(514,389)"/>
<path d="M0 0 C3 1 3 1 3 1 Z " fill="#154E7C" transform="translate(689,360)"/>
<path d="" fill="#1B4A72" transform="translate(0,0)"/>
<path d="" fill="#194D77" transform="translate(0,0)"/>
<path d="" fill="#164B79" transform="translate(0,0)"/>
<path d="" fill="#13497B" transform="translate(0,0)"/>
<path d="" fill="#1C4E7B" transform="translate(0,0)"/>
<path d="" fill="#10497C" transform="translate(0,0)"/>
<path d="" fill="#114877" transform="translate(0,0)"/>
<path d="" fill="#114C7C" transform="translate(0,0)"/>
<path d="" fill="#124F82" transform="translate(0,0)"/>
<path d="" fill="#124E7F" transform="translate(0,0)"/>
<path d="M0 0 C2 1 2 1 2 1 Z " fill="#134F81" transform="translate(369,525)"/>
<path d="M0 0 C2 1 2 1 2 1 Z " fill="#124F81" transform="translate(360,525)"/>
<path d="" fill="#104B7D" transform="translate(0,0)"/>
<path d="M0 0 C2 1 2 1 2 1 Z " fill="#134C7C" transform="translate(714,493)"/>
<path d="M0 0 C2 1 2 1 2 1 Z " fill="#0E4E7F" transform="translate(656,472)"/>
<path d="M0 0 C2 1 2 1 2 1 Z " fill="#124E7F" transform="translate(726,451)"/>
<path d="" fill="#194E79" transform="translate(0,0)"/>
<path d="M0 0 C2 1 2 1 2 1 Z " fill="#134E7F" transform="translate(704,389)"/>
<path d="M0 0 C2 1 2 1 2 1 Z " fill="#145180" transform="translate(718,360)"/>
<path d="M0 0 C2 1 2 1 2 1 Z " fill="#154E7C" transform="translate(693,360)"/>
<path d="M0 0 C2 1 2 1 2 1 Z " fill="#1D4D78" transform="translate(797,331)"/>
<path d="M0 0 C2 1 2 1 2 1 Z " fill="#18507C" transform="translate(774,328)"/>
<path d="" fill="#5E5A53" transform="translate(0,0)"/>
<path d="" fill="#204B72" transform="translate(0,0)"/>
<path d="" fill="#1D4A71" transform="translate(0,0)"/>
<path d="" fill="#174A7A" transform="translate(0,0)"/>
<path d="" fill="#1C4D7C" transform="translate(0,0)"/>
<path d="" fill="#12497D" transform="translate(0,0)"/>
<path d="" fill="#124A7B" transform="translate(0,0)"/>
<path d="" fill="#104B7E" transform="translate(0,0)"/>
<path d="" fill="#124C80" transform="translate(0,0)"/>
<path d="" fill="#134B7D" transform="translate(0,0)"/>
<path d="" fill="#184C79" transform="translate(0,0)"/>
<path d="" fill="#0F487B" transform="translate(0,0)"/>
<path d="" fill="#0F4A7A" transform="translate(0,0)"/>
<path d="" fill="#1B4E7C" transform="translate(0,0)"/>
<path d="" fill="#114C7F" transform="translate(0,0)"/>
<path d="" fill="#134C7F" transform="translate(0,0)"/>
<path d="" fill="#0E4E80" transform="translate(0,0)"/>
<path d="" fill="#104D81" transform="translate(0,0)"/>
<path d="" fill="#104C81" transform="translate(0,0)"/>
<path d="" fill="#0F4C7F" transform="translate(0,0)"/>
<path d="" fill="#104D7F" transform="translate(0,0)"/>
<path d="" fill="#114D7F" transform="translate(0,0)"/>
<path d="" fill="#124D80" transform="translate(0,0)"/>
<path d="" fill="#114E80" transform="translate(0,0)"/>
<path d="" fill="#114C80" transform="translate(0,0)"/>
<path d="" fill="#124D7E" transform="translate(0,0)"/>
<path d="" fill="#114D80" transform="translate(0,0)"/>
<path d="" fill="#124D81" transform="translate(0,0)"/>
<path d="" fill="#124D7E" transform="translate(0,0)"/>
<path d="" fill="#124E7E" transform="translate(0,0)"/>
<path d="" fill="#134C7E" transform="translate(0,0)"/>
<path d="" fill="#134D7F" transform="translate(0,0)"/>
<path d="" fill="#104D7E" transform="translate(0,0)"/>
<path d="" fill="#124E7D" transform="translate(0,0)"/>
<path d="" fill="#134B7D" transform="translate(0,0)"/>
<path d="" fill="#134D7F" transform="translate(0,0)"/>
<path d="" fill="#134D81" transform="translate(0,0)"/>
<path d="" fill="#114C7F" transform="translate(0,0)"/>
<path d="" fill="#124D7E" transform="translate(0,0)"/>
<path d="" fill="#114C7E" transform="translate(0,0)"/>
<path d="" fill="#124D7E" transform="translate(0,0)"/>
<path d="" fill="#114C7D" transform="translate(0,0)"/>
<path d="" fill="#104C7F" transform="translate(0,0)"/>
<path d="" fill="#114C7E" transform="translate(0,0)"/>
<path d="" fill="#104C7F" transform="translate(0,0)"/>
<path d="" fill="#114E7F" transform="translate(0,0)"/>
<path d="" fill="#134E80" transform="translate(0,0)"/>
<path d="" fill="#104F85" transform="translate(0,0)"/>
<path d="" fill="#135081" transform="translate(0,0)"/>
<path d="" fill="#135182" transform="translate(0,0)"/>
<path d="" fill="#145082" transform="translate(0,0)"/>
<path d="" fill="#144E82" transform="translate(0,0)"/>
<path d="" fill="#124F82" transform="translate(0,0)"/>
<path d="" fill="#134D82" transform="translate(0,0)"/>
<path d="" fill="#0F5082" transform="translate(0,0)"/>
<path d="" fill="#1A4E7D" transform="translate(0,0)"/>
<path d="" fill="#0F4A7C" transform="translate(0,0)"/>
<path d="" fill="#114C7C" transform="translate(0,0)"/>
<path d="" fill="#164E7C" transform="translate(0,0)"/>
<path d="" fill="#135081" transform="translate(0,0)"/>
<path d="" fill="#154D7F" transform="translate(0,0)"/>
<path d="" fill="#0C4A7D" transform="translate(0,0)"/>
<path d="" fill="#144D7D" transform="translate(0,0)"/>
<path d="" fill="#144F7E" transform="translate(0,0)"/>
<path d="" fill="#0F4C7E" transform="translate(0,0)"/>
<path d="" fill="#0D4B7C" transform="translate(0,0)"/>
<path d="" fill="#134F7F" transform="translate(0,0)"/>
<path d="" fill="#124A7C" transform="translate(0,0)"/>
<path d="" fill="#134D7E" transform="translate(0,0)"/>
<path d="" fill="#124C7B" transform="translate(0,0)"/>
<path d="" fill="#124D80" transform="translate(0,0)"/>
<path d="" fill="#134F7D" transform="translate(0,0)"/>
<path d="" fill="#104D7E" transform="translate(0,0)"/>
<path d="" fill="#194E7C" transform="translate(0,0)"/>
<path d="" fill="#1A4F7D" transform="translate(0,0)"/>
<path d="" fill="#114F7E" transform="translate(0,0)"/>
<path d="" fill="#0F5081" transform="translate(0,0)"/>
<path d="" fill="#0E4D7D" transform="translate(0,0)"/>
<path d="" fill="#194D7C" transform="translate(0,0)"/>
<path d="" fill="#1A4D7D" transform="translate(0,0)"/>
<path d="" fill="#1B4C7C" transform="translate(0,0)"/>
<path d="" fill="#124D7D" transform="translate(0,0)"/>
<path d="" fill="#154F80" transform="translate(0,0)"/>
<path d="" fill="#194C7B" transform="translate(0,0)"/>
<path d="" fill="#124C7F" transform="translate(0,0)"/>
<path d="" fill="#124C7B" transform="translate(0,0)"/>
<path d="" fill="#124C7B" transform="translate(0,0)"/>
<path d="" fill="#174B79" transform="translate(0,0)"/>
<path d="" fill="#104F80" transform="translate(0,0)"/>
<path d="" fill="#124E80" transform="translate(0,0)"/>
<path d="" fill="#104D7E" transform="translate(0,0)"/>
<path d="" fill="#0E4A7E" transform="translate(0,0)"/>
<path d="" fill="#105082" transform="translate(0,0)"/>
<path d="" fill="#1D4F7A" transform="translate(0,0)"/>
<path d="" fill="#194F7C" transform="translate(0,0)"/>
<path d="" fill="#0E4D80" transform="translate(0,0)"/>
<path d="" fill="#1D4D7B" transform="translate(0,0)"/>
<path d="" fill="#174F7D" transform="translate(0,0)"/>
<path d="" fill="#134E7C" transform="translate(0,0)"/>
<path d="" fill="#104E7E" transform="translate(0,0)"/>
<path d="" fill="#184C7A" transform="translate(0,0)"/>
<path d="" fill="#154E7D" transform="translate(0,0)"/>
<path d="" fill="#134F80" transform="translate(0,0)"/>
<path d="" fill="#104B80" transform="translate(0,0)"/>
<path d="" fill="#114D7E" transform="translate(0,0)"/>
<path d="" fill="#134C7C" transform="translate(0,0)"/>
<path d="" fill="#164B7B" transform="translate(0,0)"/>
<path d="" fill="#134D7C" transform="translate(0,0)"/>
<path d="" fill="#114B7E" transform="translate(0,0)"/>
<path d="" fill="#114C7E" transform="translate(0,0)"/>
<path d="" fill="#124F7E" transform="translate(0,0)"/>
<path d="" fill="#104D7D" transform="translate(0,0)"/>
<path d="" fill="#104C7C" transform="translate(0,0)"/>
<path d="" fill="#124A7D" transform="translate(0,0)"/>
<path d="" fill="#124D80" transform="translate(0,0)"/>
<path d="" fill="#104F83" transform="translate(0,0)"/>
<path d="" fill="#124D80" transform="translate(0,0)"/>
<path d="" fill="#134E80" transform="translate(0,0)"/>
<path d="" fill="#134C7F" transform="translate(0,0)"/>
<path d="" fill="#134C7F" transform="translate(0,0)"/>
<path d="" fill="#134F81" transform="translate(0,0)"/>
<path d="" fill="#104D7E" transform="translate(0,0)"/>
<path d="" fill="#144D7C" transform="translate(0,0)"/>
<path d="" fill="#134D7D" transform="translate(0,0)"/>
<path d="" fill="#115283" transform="translate(0,0)"/>
<path d="" fill="#104C7F" transform="translate(0,0)"/>
<path d="" fill="#124F82" transform="translate(0,0)"/>
<path d="" fill="#104F82" transform="translate(0,0)"/>
<path d="" fill="#134F7D" transform="translate(0,0)"/>
<path d="" fill="#14507E" transform="translate(0,0)"/>
<path d="" fill="#165180" transform="translate(0,0)"/>
<path d="" fill="#134F7F" transform="translate(0,0)"/>
<path d="" fill="#155281" transform="translate(0,0)"/>
<path d="" fill="#15517F" transform="translate(0,0)"/>
<path d="" fill="#114D81" transform="translate(0,0)"/>
<path d="" fill="#114D82" transform="translate(0,0)"/>
<path d="" fill="#17507B" transform="translate(0,0)"/>
<path d="" fill="#144E7D" transform="translate(0,0)"/>
<path d="" fill="#1A4F79" transform="translate(0,0)"/>
<path d="" fill="#194D78" transform="translate(0,0)"/>
<path d="" fill="#1D4D79" transform="translate(0,0)"/>
<path d="" fill="#204F78" transform="translate(0,0)"/>
<path d="" fill="#1B4D79" transform="translate(0,0)"/>
<path d="" fill="#164F7B" transform="translate(0,0)"/>
<path d="" fill="#1B517B" transform="translate(0,0)"/>
<path d="" fill="#244F77" transform="translate(0,0)"/>
<path d="" fill="#1E507A" transform="translate(0,0)"/>
<path d="" fill="#204F70" transform="translate(0,0)"/>
<path d="" fill="#1C4C74" transform="translate(0,0)"/>
<path d="" fill="#295377" transform="translate(0,0)"/>
<path d="" fill="#5E5B56" transform="translate(0,0)"/>
</svg>
